<svg xmlns="http://www.w3.org/2000/svg" width="72" height="72" viewBox="0 0 72 72">
  <rect width="72" height="72" rx="8" fill="#ed4245"/>
  <path d="M36 16c-5 0-9 4-9 9v11c0 5 4 9 9 9s9-4 9-9V25c0-5-4-9-9-9z" fill="white" opacity="0.5"/>
  <path d="M49 34c0 7.2-5.8 13-13 13s-13-5.8-13-13h-4c0 8.9 6.7 16.2 15 17v5h-6v4h16v-4h-6v-5c8.3-.8 15-8.1 15-17h-4z" fill="white" opacity="0.5"/>
  <line x1="14" y1="14" x2="58" y2="58" stroke="white" stroke-width="4" stroke-linecap="round"/>
  <text x="36" y="64" text-anchor="middle" font-size="8" fill="white" font-family="sans-serif">PTM</text>
</svg>
